<!DOCTYPE html>

        <svg xmlns="http://www.w3.org/2000/svg" width="100" height="200"
        style="border:0px solid purple;">
        <circle cx="50" cy="50" r="40" fill="brown" stroke="black" stroke-width="5"/> 
        <circle cx="15" cy="20" r="10" fill="brown" stroke="black" stroke-width="5"/> 
        <circle cx="85" cy="20" r="10" fill="brown" stroke="black" stroke-width="5"/> 
        <circle cx="65" cy="30" r="10" fill="black"  stroke="black" stroke-width="5"/> 
        <circle cx="65" cy="33" r="10" fill="brown"/> 
        <circle cx="35" cy="30" r="10" fill="black" stroke="black" stroke-width="5"/> 
        <circle cx="35" cy="33" r="10" fill="brown"/> 
        <circle cx="65" cy="35" r="0.8" fill="brown" stroke="black" stroke-width="5"/> 
        <circle cx="35" cy="35" r="5" fill="black" stroke="black" stroke-width="5"/> 
        <circle cx="65" cy="35" r="5" fill="black" stroke="black" stroke-width="5"/> 
        <circle cx="35" cy="35" r="3" fill="grey" stroke="black" stroke-width="5"/> 
        <circle cx="35" cy="35" r="0.8" fill="white"/> 
        <circle cx="36" cy="34" r="0.8" fill="white"/> 
        <circle cx="34" cy="34" r="0.8" fill="white"/> 
        <circle cx="65" cy="35" r="3" fill="grey" stroke="black" stroke-width="5"/> 
        <circle cx="65" cy="35" r="0.8" fill="white"/> 
        <circle cx="64" cy="34" r="0.8" fill="white"/> 
        <circle cx="66" cy="34" r="0.8" fill="white"/> 
        <filter id="f1" x="0" y="0" width="200%" height="200%">
            <feOffset result="offOut" in="SourceGraphic" dx="20" dy="20" />
            <feBlend in="SourceGraphic" in2="offOut" mode="normal" />
          
        <text x="50" y="150" fill="red">bear</text>
    </filter>
        <circle cx="50" cy="50" r="3" fill=" black" stroke="black" stroke-width="5"/> 
        <circle cx="49" cy="52" r="1" fill=" brown" stroke="black" stroke-width="5"/> 
        <circle cx="51" cy="52" r="1" fill=" brown" stroke="black" stroke-width="5"/> 
        <circle cx="15" cy="20" r="5" fill=" black" stroke="black" stroke-width="5"/> 
        <circle cx="85" cy="20" r="5" fill=" black" stroke="black" stroke-width="5"/> 
        <circle cx="15" cy="20" r="1" fill=" white"/> 
        <circle cx="85" cy="20" r="1" fill=" white"/> 
        <circle cx="51" cy="52" r="1" fill=" brown" stroke="black" stroke-width="5"/> 
        <circle cx="51" cy="52" r="1" fill=" brown" stroke="black" stroke-width="5"/> 
        <circle cx="51" cy="52" r="1" fill=" brown" stroke="black" stroke-width="5"/> 
        <circle cx="50" cy="70" r="4" fill="red"/> 
        <circle cx="50" cy="67" r="4" fill="brown"/> 
        <circle cx="50" cy="140" r="50" fill="brown" stroke="black" stroke-width="5"/> 

    </svg>

    
    
    